<svg xmlns="http://www.w3.org/2000/svg" width="149.113" height="55.275" viewBox="0 0 149.113 55.275">
  <g id="Group_4" data-name="Group 4" transform="translate(-1539 243.948)">
    <text id="Vacc" transform="translate(1539 -199.464)" fill="#fff" font-size="36" font-family="SegoeUI-Bold, Segoe UI" font-weight="700"><tspan x="0" y="0">Vacc</tspan></text>
    <g id="syringe" transform="translate(1662.937 -216.31) rotate(135)">
      <g id="group-22svg" transform="translate(0 0)">
        <path id="path-1_13_" d="M7.324,23.7a2.138,2.138,0,0,1-1.521-.63L.63,17.888a2.152,2.152,0,0,1,0-3.042L14.858.609a2.2,2.2,0,0,1,3.041,0l5.173,5.177a2.151,2.151,0,0,1,0,3.043L8.844,23.065A2.137,2.137,0,0,1,7.324,23.7ZM16.378,1.842a.289.289,0,0,0-.2.084L1.946,16.163a.291.291,0,0,0,0,.409L7.12,21.749a.252.252,0,0,0,.409,0L21.757,7.512a.289.289,0,0,0,0-.409L16.583,1.926A.288.288,0,0,0,16.378,1.842Z" transform="translate(8.482 6.904)" fill="#fff"/>
        <path id="path-2_13_" d="M7.324,11.185a2.134,2.134,0,0,1-1.52-.63L.63,5.378a2.151,2.151,0,0,1,0-3.043L2.354.61A2.2,2.2,0,0,1,5.4.61L10.57,5.787a2.155,2.155,0,0,1,0,3.042L8.845,10.555A2.134,2.134,0,0,1,7.324,11.185ZM3.876,1.842a.287.287,0,0,0-.206.086L1.946,3.653a.288.288,0,0,0,0,.408L7.12,9.239a.288.288,0,0,0,.409,0L9.254,7.513a.29.29,0,0,0,0-.409L4.08,1.927A.285.285,0,0,0,3.876,1.842Z" transform="translate(27.885 0)" fill="#fff"/>
        <path id="path-3_11_" d="M4.38,8.765a.926.926,0,0,1-.658-.272L.272,5.041a.932.932,0,0,1,0-1.317L3.722.273a.929.929,0,0,1,1.316,0L8.488,3.724a.931.931,0,0,1,0,1.317L5.038,8.493A.928.928,0,0,1,4.38,8.765ZM2.246,4.383,4.38,6.518,6.514,4.383,4.38,2.248Z" transform="translate(25.655 4.651)" fill="#fff"/>
        <path id="path-4_9_" d="M3.012,6.1a2.138,2.138,0,0,1-1.52-.63L.63,4.609a2.152,2.152,0,0,1,0-3.042L1.923.273a.93.93,0,0,1,1.316,0L5.826,2.861a.932.932,0,0,1,0,1.317L4.533,5.472A2.139,2.139,0,0,1,3.012,6.1ZM2.581,2.248l-.635.636a.291.291,0,0,0,0,.409l.862.862a.253.253,0,0,0,.409,0l.635-.636Z" transform="translate(8.482 24.497)" fill="#fff"/>
        <path id="path-5_8_" d="M.93,10.923A.931.931,0,0,1,.273,9.333L9.327.273A.931.931,0,1,1,10.643,1.59L1.589,10.65A.928.928,0,0,1,.93,10.923Z" transform="translate(0 28.164)" fill="#fff"/>
      </g>
    </g>
    <text id="Co" transform="translate(1643.113 -199.464)" fill="#fff" font-size="36" font-family="SegoeUI-Bold, Segoe UI" font-weight="700"><tspan x="0" y="0">Co</tspan></text>
  </g>
</svg>
